<svg width="564" height="618" viewBox="0 0 564 618" fill="none" xmlns="http://www.w3.org/2000/svg">
<path fill-rule="evenodd" clip-rule="evenodd" d="M105.477 452.325C139.52 492.929 271.166 469.605 357.849 469.605C395.245 469.605 520.738 490.142 468.917 349.102C299.002 -113.344 -2.38878 323.667 105.477 452.325Z" fill="#059DEF"/>
<path fill-rule="evenodd" clip-rule="evenodd" d="M256.102 455.591C256.268 455.452 256.441 455.301 256.513 455.086C256.744 454.399 255.838 453.942 255.169 453.958C254.199 453.982 252.954 454.698 253.252 455.711C253.423 456.297 254.082 456.568 254.635 456.46C255.188 456.352 255.657 455.966 256.102 455.591H256.102ZM258.987 443.533C259.72 443.785 260.443 444.096 261.081 444.565C262.28 445.444 263.095 446.809 263.877 448.136C264.438 449.088 265.007 450.058 265.287 451.148C265.59 452.329 265.536 453.59 265.333 454.796C264.7 458.555 262.583 461.984 259.635 464.027C256.687 466.069 252.952 466.694 249.582 465.709C248.926 465.517 248.266 465.256 247.761 464.758C247.337 464.34 247.052 463.782 246.79 463.227C245.417 460.311 244.492 457.071 244.598 453.792C244.703 450.513 245.934 447.195 248.264 445.134C251.188 442.547 255.401 442.301 258.987 443.533" fill="white"/>
<path fill-rule="evenodd" clip-rule="evenodd" d="M413.748 265.146C412.142 265.123 410.635 266.6 410.476 268.352C410.411 269.068 410.688 269.958 411.338 270.056C411.826 270.13 412.253 269.718 412.581 269.315C413.274 268.464 413.869 267.518 414.348 266.505C414.509 266.165 414.651 265.729 414.439 265.425C414.285 265.203 414.003 265.149 413.748 265.146ZM413.052 257.29C415.334 258.162 417.402 259.696 418.988 261.694C420.352 263.41 421.39 265.639 421.103 267.893C420.998 268.72 420.72 269.509 420.402 270.269C419.199 273.145 417.129 275.901 414.286 276.458C412.795 276.751 411.258 276.4 409.824 275.866C408.165 275.248 406.584 274.38 405.138 273.296C404.371 272.721 403.61 272.038 403.273 271.089C403.041 270.435 403.034 269.714 403.043 269.012C403.065 267.277 403.17 265.512 403.722 263.885C404.421 261.827 405.788 260.128 407.237 258.612C407.82 258.002 408.439 257.401 409.187 257.074C410.412 256.539 411.807 256.814 413.052 257.29" fill="white"/>
<path fill-rule="evenodd" clip-rule="evenodd" d="M413.75 132.077C423.191 142.745 430.642 155.501 435.52 169.345C435.855 170.296 436.18 171.352 435.86 172.309C433.399 179.679 428.65 185.823 423.994 191.797C421.019 195.614 418.043 199.431 415.068 203.248C412.227 206.893 409.386 210.537 406.45 214.09C391.499 232.178 373.833 247.994 353.373 257.726C352.601 258.093 351.773 258.46 350.941 258.313C350.11 258.166 349.33 257.285 349.548 256.397C352.078 246.075 354.623 235.283 352.594 224.83C352.104 222.309 351.558 219.135 353.467 217.617C368.919 205.334 380.045 187.777 390.707 170.458C393.388 166.104 396.062 161.737 398.434 157.174C402.647 149.072 405.891 140.372 408.059 131.362C408.356 130.125 409.786 129.569 410.919 129.893C412.052 130.217 412.937 131.158 413.75 132.077" fill="white"/>
<path fill-rule="evenodd" clip-rule="evenodd" d="M119.338 173.521C120.873 188.725 125.144 203.591 131.836 217.016C135.979 225.329 141.019 233.057 146.045 240.763C149.542 246.125 153.283 251.712 158.74 254.483C160.191 255.22 159.988 257.513 159.599 259.212C157.916 266.559 157.13 274.151 157.27 281.724C157.283 282.44 157.301 283.181 157.044 283.84C156.173 286.073 153.189 285.701 151.135 284.788C138.425 279.134 128.667 267.765 119.552 256.533C107.717 241.95 96.058 226.727 89.0665 208.779C88.5912 207.559 88.1299 206.275 88.2094 204.951C88.2905 203.602 88.9229 202.376 89.5645 201.221C95.9025 189.815 104.72 180.075 115.078 173.038C115.808 172.542 116.587 172.045 117.445 172.013C118.302 171.98 119.243 172.586 119.338 173.521" fill="white"/>
<path fill-rule="evenodd" clip-rule="evenodd" d="M411.898 440.242C412.993 438.209 414.351 435.969 416.477 435.583C417.315 435.431 417.757 434.433 418.042 433.557C421.557 422.754 421.895 410.742 418.996 399.723C418.169 396.577 419.188 393.243 420.196 390.161C422.797 382.209 425.399 374.257 428 366.305C426.51 363.48 422.58 363.564 420.566 361.159C417.975 358.065 419.93 353.146 421.959 349.584C433.817 328.776 445.675 307.968 457.533 287.159C458.986 284.61 462.174 283.811 464.846 284.49C467.518 285.17 469.8 287.012 471.997 288.811C480.645 295.889 489.294 302.967 497.942 310.045C502.583 313.843 507.707 318.696 507.44 325.037C507.292 328.546 505.46 331.665 503.687 334.592C496.833 345.909 489.979 357.226 483.125 368.542C479.264 374.918 480.33 383.291 479.163 390.836C477.319 402.756 469.86 412.545 462.952 421.973C456.044 431.4 449.132 441.927 448.744 454.01C448.281 468.411 442.037 482.475 431.984 491.764C434.9 484.012 416.477 487.104 395.402 477.917C398.87 464.474 405.418 452.273 411.898 440.242Z" fill="white"/>
<path fill-rule="evenodd" clip-rule="evenodd" d="M180.488 473.956C179.174 472.778 178.755 470.79 178.523 468.942C175.839 447.56 187.365 426.454 185.312 404.987C184.254 393.925 179.615 383.602 173.777 374.524C169.746 368.255 169.52 359.856 171.024 352.355C172.528 344.854 175.562 337.84 177.608 330.496C186.708 297.838 175.635 262.949 164.688 230.986C186.502 219.427 211.958 221.666 236.124 223.232C260.291 224.798 286.281 224.908 306.423 210.12C309.184 242.112 303.097 274.139 297.044 305.576C327.756 302.297 358.469 299.019 389.182 295.74C390.063 295.646 391.026 295.573 391.758 296.122C392.734 296.853 392.884 298.344 392.94 299.642C394.375 332.912 395.246 366.212 395.55 399.519C395.558 400.354 395.532 401.285 394.997 401.878C394.539 402.385 393.84 402.491 393.195 402.57C350.165 407.824 307.136 413.078 264.106 418.333C260.385 418.787 255.085 417.725 255.303 413.609C256.274 395.258 255.707 376.808 253.611 358.57C242.175 358.096 230.662 360.007 219.862 364.171C217.411 365.116 214.465 367.656 215.787 370.117C224.53 386.398 213.678 410.869 225.553 424.535C229.636 429.234 229.353 436.626 228.544 443.068C226.81 456.877 223.863 470.501 219.759 483.688C221.743 468.509 181.7 482.096 180.488 473.956Z" fill="white"/>
<path fill-rule="evenodd" clip-rule="evenodd" d="M57.412 129.39C57.4487 129.714 57.2887 130.054 57.0265 130.21C56.8176 129.981 56.6088 129.752 56.4 129.523C56.7131 129.373 57.0681 129.33 57.4034 129.402L57.412 129.39Z" fill="#00160A"/>
<path fill-rule="evenodd" clip-rule="evenodd" d="M258.235 443.533C258.968 443.785 259.691 444.096 260.329 444.565C261.528 445.444 262.343 446.809 263.125 448.136C263.686 449.088 264.255 450.058 264.535 451.148C264.838 452.329 264.784 453.59 264.581 454.796C263.948 458.555 261.831 461.984 258.883 464.027C255.935 466.069 252.2 466.694 248.83 465.709C248.174 465.517 247.514 465.256 247.009 464.758C246.585 464.34 246.3 463.782 246.038 463.227C244.665 460.311 243.74 457.071 243.846 453.792C243.951 450.513 245.182 447.195 247.512 445.134C250.436 442.547 254.649 442.301 258.235 443.533M254.126 463.057C255.959 462.752 257.572 461.44 258.625 459.768C259.679 458.096 260.219 456.092 260.479 454.08C260.627 452.932 260.641 451.615 259.901 450.786C259.458 450.289 258.825 450.067 258.218 449.868C255.939 449.121 253.337 448.486 251.296 449.824C249.81 450.799 248.981 452.605 248.23 454.315C247.35 456.318 247.567 458.846 248.773 460.633C249.979 462.421 252.12 463.391 254.126 463.057V463.057Z" fill="#00160A"/>
<path fill-rule="evenodd" clip-rule="evenodd" d="M341.964 353.321C341.996 352.895 342.042 352.438 342.3 352.117C342.551 351.802 342.948 351.689 343.319 351.595C352.895 349.152 362.786 348.196 372.604 348.765C373.854 348.837 375.463 349.301 375.546 350.67C376.02 358.519 376.494 366.369 376.968 374.218C376.992 374.615 377.004 375.055 376.773 375.362C376.584 375.612 376.279 375.708 375.992 375.79C365.78 378.707 355.016 379.282 344.593 377.467C344.325 377.421 344.043 377.365 343.834 377.174C343.582 376.943 343.494 376.567 343.422 376.216C341.886 368.723 341.392 360.975 341.964 353.321ZM344.222 366.342C344.41 369.306 344.977 372.241 345.902 375.034C346.825 375.18 347.738 375.39 348.657 375.56C356.577 377.03 364.678 375.551 372.597 374.075C373.159 373.97 373.776 373.831 374.122 373.335C374.477 372.829 374.43 372.124 374.366 371.489C374.093 368.785 373.82 366.08 373.547 363.375C373.525 363.157 373.497 362.923 373.362 362.761C373.199 362.564 372.931 362.532 372.689 362.515C367.061 362.109 361.415 362.569 355.79 363.029C352.682 363.283 349.573 363.537 346.464 363.791C345.733 363.851 344.904 363.97 344.483 364.628C344.174 365.112 344.184 365.752 344.222 366.342ZM344.309 355.029C343.817 356.758 343.729 358.623 344.055 360.398C344.114 360.717 344.196 361.054 344.417 361.271C344.744 361.593 345.244 361.54 345.679 361.47C350.976 360.62 356.33 360.197 361.683 360.207C362.438 360.209 362.669 359.095 362.661 358.267C362.649 357.055 362.637 355.843 362.625 354.63C362.618 353.929 362.586 353.156 362.148 352.645C361.621 352.03 360.741 352.049 359.974 352.113C358.2 352.262 356.427 352.41 354.653 352.559C353.805 352.63 351.555 353.261 350.521 353.336C348.72 353.651 346.92 353.965 345.12 354.28C344.928 354.314 344.725 354.352 344.577 354.491C344.433 354.625 344.366 354.831 344.309 355.029ZM368.055 360.303C369.462 360.323 370.871 360.168 372.247 359.844C372.575 359.767 372.919 359.669 373.153 359.405C373.496 359.019 373.493 358.413 373.468 357.875C373.395 356.312 373.322 354.749 373.249 353.185C373.223 352.628 373.166 352 372.768 351.651C372.418 351.344 371.925 351.362 371.478 351.396C369.913 351.512 368.348 351.629 366.783 351.746C366.535 351.764 366.274 351.787 366.067 351.937C365.688 352.212 365.632 352.787 365.621 353.284C365.586 354.941 365.648 356.6 365.806 358.249C365.852 358.726 365.915 359.228 366.184 359.606C366.604 360.196 367.373 360.293 368.055 360.303Z" fill="#FFB61D"/>
<path fill-rule="evenodd" clip-rule="evenodd" d="M366.471 319.019C368.563 318.027 371.13 318.36 372.953 319.859C374.777 321.357 375.786 323.965 375.502 326.443C376.784 325.684 378.41 324.936 379.606 325.848C380.956 326.877 380.648 329.095 380.445 330.884C380.09 334.01 380.55 337.242 381.756 340.101C382.254 341.282 382.682 343.074 381.577 343.551C381.391 343.631 381.187 343.65 380.987 343.667C368.031 344.812 355.074 345.956 342.117 347.1C341.762 347.131 341.364 347.148 341.095 346.892C340.821 346.63 340.786 346.184 340.772 345.786C340.647 342.447 340.523 339.107 340.399 335.768C340.366 334.872 340.35 333.906 340.811 333.166C341.576 331.941 343.176 331.945 344.513 331.71C345.85 331.476 347.406 330.24 346.891 328.867C346.317 327.337 348.273 326.219 349.765 325.97C351.257 325.722 353.237 324.747 352.785 323.169C352.291 321.445 354.456 320.375 356.091 320.137C357.244 319.969 358.45 319.807 359.544 320.24C360.639 320.674 361.563 321.908 361.317 323.154C361.035 324.581 362.621 325.91 363.871 325.406C365.121 324.902 365.627 323.03 364.995 321.745C364.478 320.696 365.473 319.493 366.471 319.019ZM373.162 341.026C372.678 340.041 372.674 338.869 372.67 337.751C372.649 332.498 372.355 327.247 371.788 322.031C371.76 321.768 371.714 321.474 371.517 321.32C371.348 321.187 371.12 321.203 370.912 321.224C369.9 321.327 368.701 321.573 368.301 322.597C368.13 323.034 368.15 323.528 368.173 324.002C368.43 329.266 368.687 334.53 368.943 339.795C368.967 340.285 369.027 340.848 369.399 341.122C369.601 341.271 369.856 341.299 370.1 341.313C371.126 341.375 372.16 341.278 373.162 341.026ZM355.735 332.932C355.61 333.809 355.433 334.68 355.386 335.566C355.308 337.047 355.592 338.519 355.875 339.97C356.057 340.9 357.154 341.358 357.958 340.999C358.762 340.641 359.248 339.701 359.382 338.761C359.515 337.821 359.359 336.864 359.222 335.925C358.685 332.234 358.453 328.491 358.528 324.754C358.548 323.809 357.706 322.955 356.847 323.048C355.988 323.142 355.316 324.16 355.505 325.083C356.029 327.653 356.107 330.331 355.735 332.932ZM364.257 327.89C363.752 327.165 362.594 327.551 362.199 328.355C361.805 329.158 361.926 330.133 362.024 331.038C362.279 333.404 362.303 335.799 362.096 338.171C362.035 338.87 361.967 339.633 362.32 340.22C362.861 341.122 364.05 341.114 365.031 341.005C365.338 340.97 365.692 340.905 365.847 340.612C365.954 340.408 365.929 340.154 365.9 339.921C365.448 336.242 364.995 332.563 364.543 328.884C364.5 328.535 364.451 328.17 364.257 327.89ZM375.48 329.471C375.099 330.04 375.019 330.78 374.986 331.485C374.873 333.899 375.165 336.312 375.456 338.709C375.571 339.654 375.965 340.868 376.832 340.803C377.711 340.738 377.941 339.449 377.921 338.484C377.866 335.927 377.812 333.371 377.758 330.814C377.744 330.142 377.679 329.363 377.17 328.988C376.636 328.594 375.86 328.903 375.48 329.471ZM348.922 328.867C348.922 328.867 349.308 332.204 349.442 333.904C349.611 336.038 349.827 338.168 350.088 340.291C350.126 340.599 350.177 340.933 350.385 341.145C350.745 341.513 352.133 341.269 352.388 340.808C352.644 340.347 352.63 339.772 352.608 339.233C352.537 337.529 352.467 335.825 352.396 334.121C352.321 332.294 351.924 328.355 351.924 328.355M343.886 340.949C343.997 341.331 344.128 341.731 344.41 341.987C344.96 342.486 345.853 342.177 346.287 341.555C346.721 340.933 346.818 340.114 346.901 339.336C347.003 338.382 347.102 337.391 346.82 336.482C346.538 335.572 345.757 334.772 344.884 334.856C344.081 334.934 343.459 335.738 343.272 336.597C343.084 337.456 343.242 338.358 343.437 339.215C343.57 339.798 343.719 340.376 343.886 340.949Z" fill="#E7EAEE"/>
<path fill-rule="evenodd" clip-rule="evenodd" d="M396.41 204.32C395.364 206.041 394.229 207.784 392.611 208.846C390.992 209.908 388.757 210.115 387.303 208.798C385.698 207.345 385.599 204.726 385.726 202.449C385.775 201.573 385.839 200.689 386.068 199.848C386.466 198.388 387.334 197.143 388.24 195.988C389.34 194.587 390.557 193.235 392.082 192.447C393.608 191.658 395.503 191.52 396.932 192.501C398.642 193.675 399.275 196.173 398.951 198.356C398.627 200.539 397.529 202.48 396.41 204.32M393.087 206.141C394.407 204.601 395.538 202.869 396.442 201.004C397.037 199.777 397.543 198.443 397.52 197.053C397.496 195.664 396.827 194.212 395.649 193.696C394.115 193.024 392.431 194.099 391.15 195.24C390.237 196.053 389.353 196.944 388.768 198.061C388.398 198.768 388.157 199.546 387.919 200.317C387.468 201.778 387.011 203.299 387.183 204.829C387.354 206.359 388.353 207.895 389.753 208.053C391.048 208.2 392.196 207.181 393.087 206.141Z" fill="#FFB61D"/>
<path fill-rule="evenodd" clip-rule="evenodd" d="M126.937 223.767C128.576 225.586 129.929 227.714 130.918 230.028C131.913 232.354 130.91 235.344 128.958 236.767C127.006 238.19 124.368 238.171 122.228 237.123C120.088 236.074 118.406 234.117 117.167 231.936C116.233 230.291 115.509 228.449 115.432 226.514C115.354 224.579 116.004 222.543 117.401 221.356C118.814 220.156 120.8 219.985 122.509 220.561C124.218 221.137 125.681 222.373 126.937 223.767M120.543 222.661C119.125 222.501 117.865 223.927 117.622 225.466C117.379 227.005 117.914 228.567 118.607 229.932C120.11 232.892 122.79 235.521 125.878 235.357C127.465 235.273 129.204 234.069 129.176 232.328C129.164 231.575 128.825 230.88 128.487 230.225C127.587 228.485 126.616 226.762 125.319 225.355C124.022 223.947 122.359 222.866 120.543 222.661Z" fill="#FFB61D"/>
<path fill-rule="evenodd" clip-rule="evenodd" d="M250.847 452.749C251.985 451.802 253.401 451.188 254.828 451.289C256.254 451.39 257.666 452.287 258.263 453.71C258.904 455.238 258.504 457.136 257.505 458.412C256.506 459.688 255 460.392 253.481 460.625C252.444 460.783 251.207 460.641 250.64 459.677C250.366 459.212 250.303 458.639 250.248 458.088C250.149 457.1 250.051 456.113 249.952 455.125C249.91 454.706 249.869 454.272 249.992 453.873C250.137 453.404 250.487 453.049 250.847 452.749M255.35 455.591C255.516 455.452 255.689 455.301 255.761 455.086C255.992 454.399 255.086 453.942 254.417 453.958C253.447 453.982 252.202 454.698 252.5 455.711C252.671 456.297 253.33 456.568 253.883 456.46C254.436 456.352 254.905 455.966 255.35 455.591H255.35Z" fill="#00160A"/>
<path fill-rule="evenodd" clip-rule="evenodd" d="M412.088 136.891C420.957 146.952 427.958 158.982 432.54 172.037C432.855 172.934 433.16 173.93 432.86 174.833C430.548 181.782 426.087 187.576 421.712 193.21L413.326 204.01C410.657 207.447 407.988 210.884 405.23 214.234C391.184 231.292 374.587 246.208 355.365 255.385C354.639 255.732 353.861 256.077 353.08 255.939C352.299 255.8 351.566 254.969 351.771 254.132C354.148 244.397 356.539 234.22 354.632 224.363C354.172 221.985 353.659 218.992 355.453 217.561C369.97 205.977 380.422 189.42 390.439 173.087C392.958 168.98 395.47 164.862 397.699 160.559C401.656 152.919 404.704 144.714 406.741 136.217C407.02 135.051 408.364 134.526 409.428 134.831C410.492 135.137 411.324 136.024 412.088 136.891ZM405.881 149.385C404.98 148.976 404.149 150.081 403.689 151.024C403.192 152.045 402.696 153.067 402.199 154.09C393.009 173.004 383.679 192.207 369.675 207.104C368.352 208.512 366.874 210.212 367.118 212.215C367.899 218.635 364.771 225.415 359.589 228.532C357.237 229.947 357.265 233.598 357.609 236.515C357.747 237.682 358.15 239.146 359.22 239.245C362.361 239.535 365.374 241.228 367.421 243.854C368.067 244.682 369.291 244.165 370.133 243.585C391.317 228.991 407.595 207.436 423.488 186.257C424.036 185.527 424.62 184.606 424.334 183.713C421.929 176.207 422.314 167.675 425.384 160.465C423.573 156.516 421.414 152.758 418.948 149.26C414.843 151.213 410.016 151.259 405.881 149.385ZM355.633 251.53C356.468 252.01 357.48 251.554 358.316 251.076C360.513 249.819 362.629 248.392 364.644 246.81C365.176 246.392 365.335 245.557 365.147 244.87C364.959 244.182 364.487 243.628 363.966 243.194C362.337 241.84 360.06 241.483 358.15 242.284C357.797 242.432 357.447 242.625 357.203 242.942C356.919 243.313 356.814 243.807 356.723 244.281C356.262 246.678 355.898 249.098 355.633 251.53ZM415.125 144.386C413.685 141.302 411.465 138.661 408.778 136.835C407.844 137.738 407.662 139.11 407.477 140.509V140.509C407.35 141.468 407.221 142.441 406.846 143.283C406.724 143.557 406.575 143.819 406.426 144.081C406.142 144.579 405.86 145.075 405.769 145.647C405.63 146.52 406.304 147.615 407.068 147.326C407.69 147.091 408.341 147.242 408.998 147.394C409.345 147.474 409.693 147.555 410.039 147.579C412.057 147.722 413.731 145.99 415.125 144.386ZM426.534 162.871C424.992 166.232 425.236 170.201 425.516 173.95L425.918 179.327C425.962 179.918 426.256 180.716 426.776 180.552C427.099 179.562 427.714 178.745 428.331 177.926C428.871 177.209 429.411 176.491 429.759 175.654C430.936 172.818 429.63 169.55 428.342 166.772L426.534 162.871ZM357.507 222.547C357.571 223.599 358.568 224.386 359.53 224.357C360.491 224.327 361.357 223.645 361.919 222.79C362.481 221.934 362.789 220.915 363.089 219.914L364.081 216.607C364.357 215.685 364.374 214.275 363.494 214.167C363.176 214.127 362.873 214.312 362.613 214.515C361.626 215.283 360.908 216.387 360.209 217.469L358.304 220.417C357.891 221.057 357.459 221.766 357.507 222.547ZM130.332 213.72C123.64 200.295 119.369 185.429 117.834 170.225C117.739 169.29 116.798 168.684 115.941 168.717C115.083 168.749 114.304 169.246 113.574 169.742C103.216 176.779 94.3985 186.519 88.0605 197.925C87.4189 199.08 86.7865 200.306 86.7054 201.655C86.6259 202.979 87.0872 204.263 87.5625 205.483C94.554 223.431 106.213 238.654 118.048 253.237C127.163 264.469 136.921 275.838 149.631 281.492C151.685 282.405 154.669 282.777 155.54 280.544C155.793 279.894 155.78 279.162 155.767 278.455L155.766 278.428C155.626 270.855 156.412 263.263 158.095 255.916C158.484 254.216 158.687 251.924 157.236 251.187C151.779 248.416 148.038 242.828 144.541 237.467C139.515 229.761 134.475 222.033 130.332 213.72ZM142.145 272.404C141.393 272.623 140.643 272.104 140.015 271.6C128.447 262.313 119.483 249.744 110.675 237.343L95.1321 215.46C97.7557 213.629 98.0889 209.651 98.1461 206.244C98.2204 201.814 98.2747 197.253 96.8143 193.122C96.4898 192.204 96.9123 191.186 97.3648 190.335C99.3056 186.687 101.997 183.52 105.181 181.14C105.489 180.91 105.815 180.681 106.185 180.624C107.16 180.473 107.908 181.512 108.429 182.427C110.487 186.043 113.315 190.133 117.195 189.835C118.672 189.722 119.491 191.628 119.922 193.181C125.281 212.485 135.343 229.897 147.142 245.388C148.675 247.402 149.06 250.119 149.441 252.811C149.866 255.813 150.287 258.785 152.291 260.715C154.003 262.363 153.685 265.323 153.223 267.768C153.129 268.268 153.016 268.804 152.67 269.145C152.412 269.399 152.064 269.505 151.729 269.602L142.145 272.404ZM114.722 185.363C112.6 183.738 110.767 181.662 109.355 179.285C109.05 178.77 108.753 178.194 108.807 177.583C108.865 176.919 109.321 176.388 109.775 175.943C110.895 174.844 112.161 173.924 113.521 173.221C114.019 172.964 114.662 172.755 115.076 173.153C115.319 173.387 115.396 173.762 115.46 174.11L117.42 184.851C117.536 185.486 116.928 186.058 116.337 186.076C115.746 186.095 115.206 185.734 114.722 185.363ZM95.3259 206.138C95.2844 208.158 95.1435 210.426 93.7618 211.764C93.4726 211.802 93.2805 211.454 93.1672 211.16C92.1717 208.578 91.1623 205.933 91.0055 203.135C90.8487 200.337 91.7045 197.307 93.7912 195.685C94.0736 195.466 94.4877 195.284 94.737 195.548C94.8371 195.653 94.88 195.807 94.9165 195.954C95.4835 198.238 95.4389 200.643 95.3903 203.009L95.3259 206.138ZM151.636 273.339C151.971 273.64 152.007 274.177 152.016 274.652L152.116 279.845C150.171 278.664 148.309 277.322 146.549 275.834C146.216 275.551 145.849 275.095 146.053 274.691C146.155 274.49 146.365 274.394 146.561 274.315C147.819 273.806 149.12 273.425 150.441 273.177C150.85 273.101 151.315 273.052 151.636 273.339ZM151.748 252.884C151.73 252.65 151.73 252.394 151.857 252.205C152.193 251.704 152.922 252.157 153.23 252.678C153.971 253.933 154.135 255.577 153.658 256.978C152.569 255.955 151.867 254.451 151.748 252.884ZM441.326 213.453C443.263 210.779 446.796 210.394 449.911 210.478C450.638 210.497 451.387 210.536 452.05 210.867C453.893 211.787 454.284 214.426 454.346 216.644C454.403 218.662 454.393 220.707 453.945 222.666C453.497 224.624 452.571 226.512 451.091 227.714C450.425 228.254 449.653 228.648 448.836 228.798C447.574 229.029 446.282 228.674 445.082 228.185C443.483 227.533 441.967 226.638 440.591 225.533C439.919 224.993 439.225 224.286 439.203 223.373C439.153 221.268 439.368 219.156 439.84 217.115C440.142 215.81 440.562 214.507 441.326 213.453ZM446.35 226.77C448.838 227.553 451.485 225.444 452.427 222.803C453.37 220.161 453.021 217.194 452.503 214.416C452.304 213.349 451.264 212.753 450.305 212.468C448.82 212.026 447.241 211.968 445.733 212.298C444.983 212.462 444.217 212.744 443.691 213.351C443.405 213.683 443.206 214.092 443.011 214.495L441.554 217.513C441.298 218.044 441.04 218.58 440.889 219.157C440.438 220.884 441.034 222.802 442.135 224.134C443.235 225.465 444.775 226.275 446.35 226.77ZM413.052 257.29C415.334 258.162 417.402 259.696 418.988 261.694C420.352 263.41 421.39 265.639 421.103 267.893C420.998 268.72 420.72 269.509 420.402 270.269C419.199 273.145 417.129 275.901 414.286 276.458C412.795 276.751 411.258 276.4 409.824 275.866C408.165 275.247 406.584 274.38 405.138 273.296C404.371 272.721 403.61 272.038 403.273 271.089C403.042 270.435 403.034 269.714 403.043 269.012C403.065 267.277 403.17 265.512 403.722 263.885C404.421 261.827 405.788 260.128 407.237 258.612C407.82 258.002 408.439 257.401 409.187 257.074C410.412 256.539 411.807 256.814 413.052 257.29ZM415.385 272.417C417.034 270.629 417.993 268.038 417.732 265.513C417.471 262.987 415.911 260.617 413.729 259.755C412.822 259.397 411.817 259.297 410.888 259.578C410.387 259.73 409.917 259.989 409.478 260.295C407.6 261.604 406.282 263.836 405.961 266.25C405.641 268.663 406.325 271.215 407.785 273.055C408.721 274.234 410.246 274.739 411.661 274.543C413.075 274.347 414.372 273.515 415.385 272.417ZM207.165 242.402C207.088 241.212 205.635 240.9 204.546 240.935C198.829 241.119 193.12 241.588 187.442 242.341C186.509 242.464 186.434 244.112 187.182 244.734C187.931 245.357 188.973 245.241 189.903 245.096L207.165 242.402ZM188.889 250.454C188.938 249.841 189.641 249.619 190.2 249.55L223.873 245.371C224.482 245.296 225.131 245.227 225.679 245.528C226.227 245.828 226.58 246.651 226.222 247.196C225.958 247.598 225.452 247.679 225.003 247.727L190.561 251.389C189.845 251.465 188.826 251.24 188.889 250.454ZM264.379 256.669C262.495 257.123 260.561 256.378 258.755 255.638C252.913 253.246 247.093 250.787 241.297 248.263C238.958 247.244 236.39 248.77 234.286 250.285C228.197 254.668 222.334 259.429 216.735 264.538C215.297 265.85 213.084 264.93 211.633 263.633C211.327 263.36 211.026 263.068 210.724 262.776L210.724 262.776L210.724 262.776L210.724 262.775L210.723 262.775L210.723 262.775L210.723 262.775L210.723 262.775L210.723 262.774L210.722 262.774L210.722 262.774L210.722 262.774L210.722 262.774C209.592 261.68 208.448 260.572 206.987 260.345C204.741 259.995 202.765 261.861 201.137 263.593L190.641 274.762C189.23 276.264 187.744 278.67 189 280.329C189.829 281.424 191.351 281.368 192.641 281.205C199.372 280.35 206.069 279.151 212.765 277.952L212.765 277.952L212.766 277.952L212.767 277.952L212.767 277.952L212.768 277.952L212.769 277.952L212.769 277.952L212.77 277.952L212.77 277.952L212.771 277.951L212.772 277.951L212.772 277.951L212.773 277.951C223.842 275.97 234.906 273.99 246.102 273.565C248.583 273.471 251.065 273.454 253.548 273.437H253.549C255.104 273.426 256.658 273.415 258.213 273.385C265.223 273.251 272.228 272.734 279.192 271.835C279.529 271.791 279.912 271.715 280.087 271.397C280.219 271.156 280.186 270.853 280.149 270.575L277.199 248.584C277.049 247.467 276.787 246.175 275.855 245.692C274.914 245.205 273.804 245.833 273.032 246.598C271.822 247.795 270.891 249.385 269.972 250.953C268.464 253.526 266.99 256.04 264.379 256.669ZM216.478 268.702C222.777 263.027 229.346 257.71 236.148 252.78C237.545 251.767 239.243 250.731 240.804 251.396L257.299 258.419C260.051 259.591 263.062 260.778 265.889 259.839C269.174 258.746 271.138 255.164 272.792 251.868C273.114 251.227 274.05 251.3 274.514 251.827C274.977 252.354 275.094 253.129 275.19 253.853L276.397 263.024C276.582 264.433 276.765 265.894 276.393 267.257C276.022 268.62 274.931 269.859 273.633 269.831C252.4 269.382 231.127 271.3 210.248 275.547C209.603 275.678 208.958 275.812 208.312 275.945L208.31 275.946L208.309 275.946L208.307 275.947H208.307H208.306H208.306H208.306H208.306H208.306C203.318 276.978 198.312 278.014 193.243 278.033C195.691 274.234 198.793 271.007 201.873 267.808C203.564 266.051 205.678 264.156 207.949 264.731C209.174 265.041 210.115 266.006 211.05 266.967C211.35 267.275 211.65 267.582 211.958 267.867C213.228 269.042 215.194 269.859 216.478 268.702ZM488.869 332.676C488.306 332.906 487.678 332.749 487.105 332.552C483.222 331.214 480.069 328.223 476.97 325.284C476.55 324.886 476.132 324.489 475.712 324.097C470.577 319.297 465.005 315.061 459.105 311.47C458.505 311.105 457.875 310.72 457.507 310.085C457.14 309.45 457.151 308.482 457.718 308.058C460.364 306.079 462.079 302.682 462.205 299.174C462.239 298.24 463.203 297.617 464.054 297.691C464.905 297.766 465.647 298.327 466.343 298.868L493.303 319.838C493.828 320.246 494.393 320.72 494.521 321.41C494.626 321.975 494.411 322.545 494.194 323.069C493.031 325.881 491.694 328.605 490.194 331.218C489.855 331.81 489.467 332.432 488.869 332.676ZM461.898 307.8C461.581 308.412 461.307 309.298 461.82 309.722L483.82 327.873C485.025 328.867 486.898 329.798 487.846 328.514C488.936 327.039 489.953 325.5 490.893 323.906C491.15 323.47 491.412 322.971 491.32 322.462C491.235 321.997 490.878 321.66 490.542 321.361C482.468 314.188 473.92 307.656 464.986 301.834L461.898 307.8ZM450.949 318.9C451.304 318.232 451.736 317.501 452.425 317.337C452.952 317.212 453.489 317.46 453.975 317.718C456.624 319.128 459.05 321.038 461.114 323.34C461.61 323.894 461.672 324.785 461.451 325.523C461.23 326.261 460.774 326.881 460.328 327.484C459.61 328.453 458.845 329.461 457.786 329.921C456.643 330.417 455.314 330.178 454.231 329.539C453.149 328.901 452.28 327.901 451.515 326.848C450.516 325.473 449.622 323.824 449.777 322.075C449.878 320.929 450.42 319.894 450.949 318.9ZM455.583 326.596C457.249 327.306 458.314 326.743 458.358 325.546C458.386 324.791 457.784 324.209 457.237 323.748L455.583 322.353C455.036 321.892 454.432 321.409 453.743 321.414C453.053 321.419 452.35 322.199 452.633 322.888C452.59 323.222 453.917 325.886 455.583 326.596ZM449.006 341.334C449.413 341.578 449.843 341.817 450.306 341.827C450.77 341.838 451.272 341.55 451.385 341.058C451.652 339.904 452.35 338.946 453.032 338.009C453.107 337.907 453.181 337.804 453.255 337.702C454.003 336.665 454.724 335.491 454.744 334.17C454.764 332.848 453.765 331.44 452.571 331.62C451.629 331.762 450.754 331.086 450.07 330.363C449.961 330.248 449.853 330.13 449.745 330.011C449.172 329.386 448.591 328.75 447.831 328.479C446.928 328.156 445.697 328.669 445.626 329.708C445.482 331.799 443.895 333.373 442.424 334.714C441.984 335.116 442.382 335.886 442.793 336.322C444.648 338.286 446.744 339.977 449.006 341.334ZM449.3 337.35L446.403 335.202C445.666 334.656 445.725 333.318 446.382 332.661C447.039 332.003 448.06 331.953 448.897 332.282C449.734 332.611 450.431 333.257 451.108 333.889C451.556 334.308 451.617 335.071 451.412 335.675C451.207 336.28 450.79 336.765 450.384 337.231C450.245 337.391 450.089 337.561 449.889 337.589C449.677 337.619 449.478 337.481 449.3 337.35ZM472.272 337.491L473.689 334.192C474.123 333.182 474.543 331.933 473.958 331.019C473.754 330.702 473.454 330.478 473.161 330.262L468.006 326.455C467.45 326.045 466.848 325.618 466.177 325.63C465.383 325.644 464.718 326.265 464.153 326.878C463.309 327.796 462.519 328.774 461.791 329.805C461.236 330.59 460.781 331.881 461.538 332.426L469.426 338.096C470.049 338.544 470.839 339.004 471.493 338.614C471.877 338.386 472.086 337.924 472.272 337.491ZM470.524 335.156C470.193 335.239 469.847 335.147 469.522 335.04C467.53 334.382 465.708 333.123 464.308 331.438C463.842 330.877 464.105 329.887 464.697 329.494C465.289 329.101 466.058 329.192 466.696 329.485C467.108 329.675 467.484 329.939 467.862 330.203C468.069 330.348 468.276 330.493 468.489 330.626C468.718 330.769 468.956 330.9 469.195 331.031C469.873 331.403 470.552 331.776 471.014 332.42C471.639 333.291 471.51 334.908 470.524 335.156ZM473.188 338.84C474.098 338.604 474.375 337.588 474.664 336.532C474.903 335.66 475.149 334.76 475.765 334.25C476.825 333.371 478.327 334.106 479.47 334.85L483.104 337.219C483.683 337.597 484.276 337.987 484.691 338.568C485.106 339.15 485.31 339.973 485.02 340.639C484.826 341.084 484.459 341.379 484.09 341.676C483.787 341.919 483.482 342.164 483.27 342.495C482.997 342.919 482.895 343.45 482.795 343.976C482.669 344.635 482.544 345.284 482.085 345.698C481.249 346.454 480.005 345.848 479.08 345.229L473.961 341.801C473.445 341.456 472.9 341.076 472.646 340.474C472.393 339.872 472.6 338.994 473.188 338.84ZM479.9 342.244C480.633 341.97 481.222 341.374 481.788 340.794C482.198 340.374 481.649 339.682 481.16 339.381L478.024 337.446C477.696 337.244 477.241 337.06 476.988 337.363C476.171 338.34 476.052 339.934 476.713 341.043C477.375 342.152 478.755 342.672 479.9 342.244ZM443.914 342.124C443.212 341.907 442.497 341.686 441.924 341.258C441.033 340.592 439.793 340.754 438.859 341.342C437.924 341.93 437.227 342.873 436.553 343.794C436.179 344.305 435.794 344.839 435.651 345.475C435.508 346.111 435.679 346.883 436.201 347.202L441.671 350.542C442.085 350.795 442.547 351.057 443.01 350.944C443.471 350.832 443.789 350.384 444.067 349.965L445.474 347.843C446.257 346.662 447.076 345.157 446.503 343.839C446.044 342.782 444.994 342.458 443.914 342.124ZM442.183 347.62C441.897 347.703 441.603 347.552 441.339 347.405L437.613 345.327C438.33 344.216 439.692 343.79 440.928 343.924C442.163 344.059 443.31 344.66 444.428 345.253L442.715 347.201C442.562 347.376 442.397 347.558 442.183 347.62ZM416.369 264.534C416.946 265.498 416.765 266.786 416.382 267.86C415.878 269.275 415.026 270.586 413.821 271.339C412.617 272.091 411.036 272.201 409.862 271.392C408.689 270.583 408.099 268.784 408.728 267.43C408.874 267.117 409.072 266.84 409.27 266.562L409.271 266.562C409.461 266.297 409.65 266.031 409.794 265.734C409.889 265.538 409.962 265.331 410.036 265.124C410.142 264.825 410.248 264.527 410.416 264.266C411.013 263.34 412.189 263.157 413.225 263.173C414.399 263.192 415.725 263.458 416.369 264.534ZM413.747 265.146C412.141 265.124 410.634 266.6 410.475 268.352C410.41 269.068 410.687 269.958 411.338 270.057C411.825 270.131 412.253 269.718 412.58 269.316C413.273 268.465 413.868 267.518 414.347 266.506C414.508 266.166 414.65 265.73 414.439 265.425C414.285 265.203 414.002 265.15 413.747 265.146ZM452.175 219.229C452.051 217.617 451.066 216.032 449.637 215.628C447.821 215.115 446.061 216.516 444.619 217.83C444.193 218.219 443.747 218.637 443.567 219.212C443.26 220.187 443.812 221.215 444.355 222.057C444.976 223.022 445.641 223.992 446.548 224.63C447.456 225.268 448.665 225.515 449.617 224.961C450.103 224.679 450.48 224.217 450.808 223.734C451.69 222.436 452.298 220.841 452.175 219.229ZM448.148 223.362C447.532 223.464 446.894 223.191 446.441 222.724C445.762 222.023 445.493 220.897 445.73 219.909C445.979 218.869 446.776 218.01 447.73 217.753C448.683 217.497 449.753 217.854 450.414 218.649C450.389 218.865 450.368 219.084 450.348 219.302C450.277 220.043 450.207 220.786 449.973 221.482C449.67 222.383 449.015 223.22 448.148 223.362ZM399.265 474.818C402.613 461.839 408.935 450.059 415.191 438.443C416.249 436.479 417.56 434.317 419.613 433.944C420.422 433.798 420.849 432.834 421.124 431.987C424.517 421.558 424.844 409.959 422.045 399.32C421.246 396.283 422.23 393.064 423.203 390.088L430.739 367.055C429.955 365.569 428.473 364.917 426.972 364.256C425.716 363.703 424.447 363.144 423.561 362.086C421.06 359.099 422.947 354.349 424.906 350.91L459.253 290.637C460.656 288.176 463.734 287.404 466.314 288.06C468.894 288.716 471.097 290.495 473.219 292.232L498.269 312.734C502.751 316.401 507.698 321.087 507.44 327.209C507.297 330.597 505.528 333.609 503.816 336.435L483.963 369.215C481.396 373.453 481.085 378.607 480.772 383.783C480.631 386.125 480.489 388.471 480.138 390.739C478.426 401.807 471.7 410.972 465.255 419.754C464.998 420.104 464.741 420.454 464.485 420.803C457.816 429.905 451.142 440.069 450.767 451.735C450.32 465.64 444.292 479.22 434.585 488.188L443.032 465.734C445.041 460.394 446.901 453.751 443.539 449.302C442.018 447.289 439.719 446.224 437.513 445.232L424.394 439.334C423.489 438.928 422.556 438.515 421.579 438.508C418.531 438.488 416.718 442.11 415.482 445.162C411.207 455.723 405.747 465.707 399.265 474.818ZM442.402 444.323C444.652 445.236 447.818 445.79 448.884 443.436C454.043 432.041 459.344 420.426 467.555 411.435C472.288 406.253 475.19 399.338 476.832 392.23C478.473 385.123 478.938 377.762 479.396 370.447C477.403 371.242 477.23 374.189 477.238 376.513C477.257 381.635 476.44 386.76 474.837 391.572C474.501 392.579 474.051 393.668 473.152 394.092C472.254 394.517 470.931 393.664 471.233 392.644C473.55 384.817 474.414 376.476 473.756 368.279C473.552 365.737 473.119 363.018 471.47 361.217C471.649 365.23 471.828 369.261 471.457 373.259C470.815 380.174 468.552 386.768 466.309 393.27C466.018 394.115 465.666 395.035 464.926 395.432C464.186 395.828 463.038 395.2 463.231 394.322L466.59 379.108C468.437 370.743 470.253 361.744 467.394 353.728C465.954 353.622 465.615 355.878 465.744 357.453C466.624 368.241 463.903 378.949 461.208 389.37C460.893 390.586 459.78 392.108 458.914 391.271C458.541 390.91 458.524 390.288 458.554 389.744C458.725 386.679 459.491 383.713 460.257 380.749C460.495 379.829 460.732 378.91 460.952 377.988C462.977 369.489 463.493 360.562 462.464 351.851C460.69 354.343 459.937 357.504 459.227 360.567L455.011 378.751C453.105 386.971 450.67 396.008 444.061 400.423C443.535 400.775 442.925 401.102 442.325 400.946C441.579 400.753 441.157 399.909 440.846 399.141C436.628 388.732 436.101 376.588 439.399 365.787C439.599 365.131 438.99 364.446 438.362 364.392C437.733 364.338 437.144 364.713 436.629 365.112C431.218 369.295 429.145 376.873 427.424 383.88L425.135 393.197C424.801 394.558 424.465 395.931 424.395 397.338C424.289 399.477 424.799 401.57 425.306 403.651C425.423 404.133 425.541 404.615 425.65 405.097C427.852 414.776 426.857 425.289 422.891 434.268C422.306 435.592 423.85 436.796 425.109 437.307L442.402 444.323ZM450.95 355.406C450.048 354.725 449.082 353.948 448.803 352.787C448.375 351.007 449.922 349.219 451.588 348.979C453.254 348.74 454.883 349.621 456.264 350.67C458.208 352.148 460.669 349.894 462.125 347.85C460.161 346.562 458.287 344.564 458.21 342.058C458.133 339.551 460.914 337.164 462.764 338.639C463.483 339.212 464.351 339.562 465.211 339.908C466.498 340.427 467.763 340.937 468.469 342.173C469.273 343.578 468.987 345.477 468.17 346.872C467.352 348.267 466.094 349.268 464.865 350.236C466.629 350.427 468.345 351.116 469.805 352.218L471.395 347.141C471.518 346.747 471.652 346.335 471.935 346.057C472.48 345.521 473.328 345.687 474.026 345.929C475.857 346.566 477.653 347.56 478.862 349.196C480.07 350.833 480.574 353.21 479.729 355.1C478.885 356.991 476.501 357.999 474.886 356.859C474.551 356.623 474.215 356.307 473.878 355.991C472.978 355.145 472.078 354.3 471.209 354.977C473.862 357.241 475.685 360.642 476.196 364.284C484.549 350.342 492.813 336.336 500.986 322.266C501.766 320.923 502.395 318.806 501.124 318.034C495.697 314.734 490.899 310.316 486.113 305.907C480.072 300.343 474.049 294.796 466.8 291.538C466.34 291.331 465.837 291.131 465.356 291.27C464.852 291.416 464.497 291.896 464.18 292.349C450.681 311.655 438.566 332.123 427.984 353.501C426.507 356.484 428.483 360.039 430.374 362.726C431.318 364.069 433.141 365.487 434.171 364.222C435.469 362.628 437.598 361.717 439.436 362.429C441.275 363.14 442.419 365.76 441.419 367.595C440.696 368.922 442.111 370.396 443.348 371.139C445.82 372.622 448.355 373.978 450.942 375.2C451.302 375.37 451.721 375.537 452.071 375.345C452.405 375.162 452.54 374.726 452.644 374.334L455.511 363.526C455.982 361.748 456.298 359.442 454.906 358.392L450.95 355.406ZM502.231 325.109C501.85 324.966 501.502 325.383 501.279 325.75L479.815 360.956C479.237 361.903 478.646 362.888 478.477 364.012C478.309 365.135 478.686 366.442 479.619 366.943C481.165 367.771 482.782 366.03 483.774 364.489L503.717 333.519C505.198 331.219 503.944 328.076 502.677 325.628C502.568 325.416 502.441 325.188 502.231 325.109ZM441.799 372.121C441.421 371.82 440.856 371.999 440.54 372.376C440.223 372.754 440.094 373.27 439.975 373.765C439.682 374.984 439.387 376.215 439.343 377.475C439.3 378.735 439.509 379.987 439.717 381.227L441.772 393.469C441.858 393.983 441.959 394.528 442.291 394.902C442.624 395.276 443.271 395.357 443.54 394.926C446.582 390.051 449.667 385.081 451.258 379.438C451.456 378.737 451.514 377.75 450.886 377.492C447.655 376.16 444.589 374.348 441.799 372.121ZM465.535 341.915C464.505 340.84 463.143 340.153 461.728 339.995C460.438 339.85 459.693 341.837 460.282 343.103C460.871 344.369 462.172 344.996 463.376 345.525C464.226 345.898 465.257 346.25 465.998 345.661C467.063 344.814 466.488 342.909 465.535 341.915ZM457.062 356.101C457.482 355.774 457.536 355.105 457.419 354.555C456.976 352.482 454.902 351.424 453.04 350.817C452.32 350.582 451.424 350.418 450.917 351.025C450.493 351.532 450.583 352.371 450.949 352.93C451.314 353.489 451.886 353.833 452.438 354.159L455.314 355.856C455.86 356.179 456.556 356.496 457.062 356.101ZM473.424 348.633C472.815 349.526 472.877 350.825 473.385 351.791C473.893 352.757 474.773 353.428 475.701 353.884C476.019 354.041 476.368 354.179 476.71 354.104C477.004 354.04 477.256 353.822 477.436 353.559C478.1 352.587 477.778 351.121 477.017 350.238C476.256 349.355 475.173 348.912 474.131 348.498C473.951 348.426 473.741 348.357 473.577 348.465C473.515 348.506 473.467 348.569 473.424 348.633ZM185.026 429.604C185.424 426.38 185.982 422.831 188.294 420.789C190.137 419.161 192.668 418.901 195.035 418.852C202.79 418.688 210.57 420.068 217.882 422.904C220.195 423.801 222.616 424.983 223.881 427.287C225.25 429.781 224.916 432.927 224.538 435.808L218.665 480.511C222.714 467.565 225.621 454.19 227.333 440.634C228.131 434.309 228.409 427.052 224.381 422.439C218.093 415.238 218.264 404.98 218.439 394.551C218.589 385.55 218.742 376.42 214.746 369.016C213.442 366.6 216.349 364.106 218.766 363.179C229.422 359.09 240.782 357.215 252.064 357.68C254.132 375.584 254.692 393.697 253.733 411.713C253.518 415.754 258.748 416.797 262.419 416.35L389.78 400.876C390.417 400.798 391.107 400.694 391.558 400.196C392.086 399.615 392.112 398.7 392.104 397.88C391.804 365.183 390.945 332.491 389.529 299.829C389.473 298.554 389.326 297.09 388.362 296.373C387.64 295.834 386.69 295.906 385.821 295.998L294.916 305.654C300.888 274.792 306.894 243.35 304.17 211.943C284.297 226.461 258.655 226.352 234.811 224.815C233.821 224.751 232.827 224.686 231.832 224.62C208.887 223.118 184.959 221.551 164.331 232.427C175.132 263.806 186.056 298.057 177.078 330.119C176.284 332.955 175.339 335.741 174.394 338.526C172.938 342.82 171.482 347.111 170.582 351.578C169.098 358.942 169.321 367.188 173.299 373.342C179.058 382.255 183.635 392.389 184.679 403.249C185.669 413.555 183.456 423.776 181.245 433.986C178.935 444.654 176.627 455.309 177.98 466.035C178.209 467.849 178.623 469.801 179.919 470.957L185.026 429.604ZM194.037 300.095C196.446 300.188 197.403 303.501 197.711 306.121L200.149 326.86C195.388 324.155 188.69 328.746 188.827 334.621C184.815 326.135 184.205 316.411 183.602 306.785C183.471 304.691 183.34 302.601 183.174 300.53C181.403 278.383 175.311 256.962 169.258 235.743C168.394 232.717 172.123 230.755 174.985 230.295C193.77 227.277 212.781 227.694 231.802 228.111C240.423 228.3 249.046 228.489 257.651 228.358C272.941 228.125 289.119 226.54 301.521 216.739C304.309 237.102 300.52 257.647 296.779 277.932C296.273 280.676 295.767 283.416 295.28 286.149C291.185 309.09 288.398 333.544 296.232 355.286C296.562 356.202 295.437 356.893 294.557 357.094C288.113 358.567 281.451 358.884 274.915 358.029C272.111 357.662 269.337 357.083 266.562 356.503C264.473 356.067 262.383 355.63 260.28 355.285C244.448 352.682 227.924 355.383 213.475 362.937C212.896 363.239 212.207 363.098 211.601 362.868C208.675 361.758 206.587 358.796 205.546 355.6C204.504 352.405 204.355 348.956 204.216 345.566L203.633 331.35C203.612 330.839 203.734 330.146 204.201 330.13C229.511 329.263 254.793 327.394 279.98 324.525C278.915 317.996 278.809 311.279 279.668 304.713C280.21 300.568 276.653 296.789 272.865 296.234C269.077 295.679 265.331 297.559 262.186 299.938C261.009 300.828 259.879 301.795 258.75 302.761C256.861 304.377 254.974 305.991 252.872 307.243C251.496 308.062 249.842 308.722 248.398 308.061C246.63 307.251 246.037 304.947 245.508 302.89C245.475 302.761 245.442 302.632 245.409 302.505C244.72 299.856 243.582 297.22 241.579 295.554C239.577 293.888 236.556 293.473 234.58 295.176C232.891 296.631 232.356 299.153 232.073 301.487C232.048 301.695 232.024 301.904 231.999 302.113C231.748 304.26 231.489 306.478 230.32 308.2C229.036 310.089 226.173 310.899 224.765 309.119C221.982 305.599 217.098 304.86 212.999 306.096C208.901 307.331 205.394 310.185 201.993 312.98C199.942 309.462 199.772 304.725 201.565 301.043L201.595 300.981C201.933 300.29 202.32 299.496 202.022 298.791C201.837 298.355 201.43 298.088 201.027 297.898C198.615 296.765 195.534 297.733 194.037 300.095ZM266.508 359.544C267.856 359.839 269.514 360.498 269.597 362.001C270.392 376.344 280.794 389.232 293.584 392.407C306.373 395.581 320.547 389.162 328.004 377.343C335.461 365.523 336.045 349.104 329.93 336.393C323.373 322.761 307.436 315.522 294 320.071C293.376 317.059 293.446 313.877 294.202 310.902C294.342 310.349 294.525 309.771 294.932 309.411C295.33 309.058 295.867 308.978 296.375 308.911L334.225 303.916C337.553 303.476 340.889 303.037 344.24 303.006C358.653 302.876 373.054 301.301 387.206 298.308C389.405 330.663 390.44 363.113 390.307 395.557C390.301 397.096 389.873 399.142 388.469 399.186C364.649 399.947 341.015 403.38 317.373 406.815C301.488 409.123 285.6 411.431 269.647 412.93C266.091 413.264 262.512 413.558 258.959 413.187C258.315 413.119 257.589 412.975 257.239 412.379C257.028 412.02 257.004 411.57 256.986 411.143L254.862 359.249C254.835 358.578 254.872 357.77 255.402 357.433C255.753 357.21 256.193 357.29 256.591 357.377L266.508 359.544ZM201.336 347.53C200.96 350.225 200.536 353.257 202.148 355.297C208.159 362.903 214.403 371.03 216.001 380.938C216.747 385.565 216.426 390.327 216.107 395.069C215.705 401.043 215.305 406.986 217.041 412.59C217.087 412.736 217.133 412.883 217.18 413.03C217.499 414.029 217.824 415.047 217.721 416.09C217.602 417.287 216.655 418.49 215.572 418.286L203.006 415.911C198.845 415.125 194.449 414.359 190.496 415.987C189.732 416.302 188.852 415.75 188.443 414.976C188.033 414.202 187.979 413.27 187.944 412.377C187.901 411.298 187.869 410.211 187.836 409.121C187.633 402.267 187.427 395.284 184.531 389.278L175.293 370.116C173.929 367.287 172.534 364.332 172.439 361.134C172.377 358.999 172.903 356.902 173.424 354.843L178.033 336.653C179.003 332.823 180.03 328.872 182.327 325.796C187.91 336.173 188.46 349.598 183.751 360.482C183.315 361.489 184.646 362.526 185.595 362.125C186.543 361.723 187.025 360.585 187.36 359.532C188.699 355.317 189.169 350.873 189.64 346.423C190.02 342.823 190.401 339.218 191.244 335.727C191.76 333.588 192.505 331.405 194.012 329.933C195.519 328.461 197.977 327.957 199.557 329.335C200.765 330.39 201.158 332.192 201.388 333.866C201.995 338.283 201.992 342.8 201.38 347.217C201.366 347.32 201.351 347.425 201.336 347.53ZM223.018 311.618C224.87 313.171 226.685 314.693 228.907 314.411C231.732 314.053 233.492 310.867 234.312 307.883C234.492 307.23 234.652 306.562 234.812 305.892C235.383 303.502 235.959 301.093 237.456 299.294C237.891 298.772 238.517 298.285 239.135 298.49C239.636 298.656 239.927 299.212 240.16 299.725C240.489 300.452 240.801 301.192 241.112 301.932C241.992 304.018 242.871 306.106 244.148 307.919C245.877 310.375 248.568 312.306 251.382 311.968C253.899 311.666 255.865 309.714 257.781 307.811C258.174 307.42 258.565 307.032 258.958 306.661C263.574 302.3 269.585 299.748 275.678 299.564C274.856 301.814 275.404 304.269 275.942 306.678C276.071 307.258 276.2 307.835 276.309 308.406C277.169 312.912 276.734 317.704 275.081 321.936L234.388 325.369C224.888 326.17 215.364 326.972 205.842 326.605C205.24 326.582 204.623 326.55 204.07 326.291C203.025 325.801 202.404 324.579 202.179 323.358C201.675 320.62 202.827 317.768 204.571 315.732C206.316 313.696 208.595 312.325 210.833 310.987C213.162 309.596 215.747 308.158 218.344 308.752C220.072 309.147 221.557 310.393 223.018 311.618ZM300.077 376.572C293.912 376.433 288.57 370.922 286.74 364.469C286.366 363.152 287.144 361.707 288.216 360.984C289.288 360.26 290.585 360.09 291.836 359.936L300.869 358.824C298.122 352.973 296.165 346.678 295.083 340.206C294.984 339.619 294.895 339.003 295.064 338.435C295.362 337.439 296.341 336.915 297.248 336.581C304.587 333.879 313.399 337.16 317.715 344.203C322.03 351.247 321.465 361.428 316.399 367.844C314.206 370.622 311.333 372.673 308.306 374.25C305.724 375.596 302.935 376.636 300.077 376.572ZM329.331 341.798C330.428 345.767 330.745 349.942 330.895 354.086C328.432 353.677 325.944 353.445 323.453 353.392C322.966 346.422 318.733 340.124 313.167 336.708C307.601 333.292 300.883 332.554 294.593 333.724C294.54 332.741 294.377 331.716 294.213 330.691C293.782 327.985 293.35 325.28 294.947 323.359C295.911 322.199 297.38 321.735 298.788 321.448C305.2 320.139 312.037 321.511 317.61 325.224C323.184 328.937 327.441 334.957 329.331 341.798ZM284.117 363.766C284.107 363.895 284.097 364.021 284.092 364.142C284.05 365.105 284.46 365.989 284.865 366.863C284.974 367.098 285.082 367.331 285.182 367.566C285.651 368.675 285.879 370.136 285.094 371.005C283.193 373.106 281.514 375.448 280.1 377.968C279.75 378.591 278.889 378.642 278.314 378.271C277.738 377.899 277.382 377.236 277.049 376.601C274.947 372.585 272.792 368.383 272.529 363.761C272.497 363.186 272.555 362.491 273.02 362.223C273.225 362.105 273.466 362.101 273.698 362.1L283.101 362.069C283.326 362.068 283.562 362.071 283.758 362.192C284.219 362.48 284.166 363.147 284.117 363.766Z" fill="#00160A"/>
</svg>
